<svg width="2199" height="479" viewBox="0 0 2199 479" fill="none" xmlns="http://www.w3.org/2000/svg">
<path d="M161 101.922C172 110.422 200.111 121.664 218.511 107.264C236.911 92.8645 229.382 71.4219 218.511 62.809C208.511 54.8859 194.511 44.0526 158.511 39.3888C104.52 32.3942 70.5121 47.9213 58.0116 60.4218C38.5109 74.9219 20.5 99.7645 38.5109 154.886C49.0116 174.386 57.2109 185.786 80.0109 193.386C108.511 202.886 144.5 211.922 147.011 228.386C149.218 242.856 151 257.922 112 261.422C80.5265 264.246 62 236.422 47.5109 229.886C32.5018 220.922 -3.31207 228.816 4.00045 264.386C7.50268 281.422 26.7219 295.633 32 299.922C37.2781 304.21 66.509 327.922 147.011 318.386C196.012 306.922 211.536 280.29 218.511 254.386C225.512 228.386 221.512 197.422 208.012 181.886C203.012 173.922 184.512 156.422 155.012 148.886C123.512 137.922 115.012 135.922 108.012 127.386C101.613 119.583 106.5 105.422 117 99.7645C120.714 97.7631 145.471 89.9219 161 101.922Z" fill="#6A99BD"/>
<path d="M335.015 73.9057V130.575H356.515C383.5 130.575 389.502 183.575 356.515 183.575H335.015V311.575C335.015 322.932 325.215 330.875 302.015 330.075C278.814 330.875 269.046 322.76 269.046 311.403V183.403H247.546C214.559 183.403 220.56 130.404 247.546 130.404H269.046V73.9057C269.046 44.9218 335.015 45.0995 335.015 73.9057Z" fill="#6A99BD"/>
<path fill-rule="evenodd" clip-rule="evenodd" d="M387.996 219.876C391.663 256.209 402.296 332.176 415.496 345.376C431.996 361.876 455.996 396.376 452.996 416.376C452.996 432.422 539.504 434.339 539.504 416.376L539.496 416.322C536.496 396.322 560.496 361.822 576.996 345.322C590.19 332.128 600.819 256.23 604.491 219.876C604.496 77.9206 388 82.9138 387.996 219.876ZM439.496 219.876C439.496 147.384 552.496 145.873 552.496 219.876C552.496 286.884 439.496 287.384 439.496 219.876Z" fill="#6A99BD"/>
<path d="M638 136.426V307.426C638 334.416 701 342.416 701 307.426V201.426C701 173.916 759.5 169.426 759.5 201.426V307.426C759.5 333.416 826 337.916 826 307.426V201.426C826 173.916 882 172.416 882 201.426V307.426C882 335.922 947.5 337.922 947.5 307.426V169.426C947.5 136.426 867 100.422 826 163.426C807.167 137.759 755.8 100.123 701 154.923V136.426C704 104.921 638 104.919 638 136.426Z" fill="#6A99BD"/>
<path d="M1521 59.9441C1521 10.922 1592 11.9095 1592 59.9441C1592 107.979 1521 107.422 1521 59.9441Z" fill="#6A99BD"/>
<path d="M1526 136.449V307.448C1526 334.438 1589 342.438 1589 307.448V201.449V136.449C1592 104.944 1526 104.942 1526 136.449Z" fill="#6A99BD"/>
<path d="M2125 295.319C2125 246.297 2196 247.284 2196 295.319C2196 343.354 2125 342.797 2125 295.319Z" fill="#6A99BD"/>
<path fill-rule="evenodd" clip-rule="evenodd" d="M1197.51 130.393V304.393C1197.51 339.399 1135.01 336.399 1135.01 304.393V290.393C1116.34 312.726 1062.6 343.993 1009 290.393C955.403 236.793 988.001 168.308 1011.5 146.893C1032.17 128.059 1089.81 101.693 1135.01 146.893V130.393C1135.01 99.4012 1197.51 98.9214 1197.51 130.393ZM1135.01 224.399C1140.51 167.163 1051.51 158.399 1051.51 224.399C1051.51 278.899 1130.01 276.399 1135.01 224.399Z" fill="#6A99BD"/>
<path fill-rule="evenodd" clip-rule="evenodd" d="M2088.55 130.393V304.393C2088.55 339.399 2026.05 336.399 2026.05 304.393V290.393C2007.38 312.726 1953.64 343.993 1900.04 290.393C1846.44 236.793 1879.04 168.308 1902.54 146.893C1923.21 128.059 1980.85 101.693 2026.05 146.893V130.393C2026.05 99.4012 2088.55 98.9214 2088.55 130.393ZM2026.05 224.399C2031.55 167.163 1942.55 158.399 1942.55 224.399C1942.55 278.899 2021.05 276.399 2026.05 224.399Z" fill="#6A99BD"/>
<path fill-rule="evenodd" clip-rule="evenodd" d="M1839.55 26.4237V304.435C1839.55 339.441 1777.05 336.441 1777.05 304.435V290.435C1758.38 312.769 1704.64 344.035 1651.04 290.435C1597.44 236.835 1630.04 168.351 1653.54 146.936C1674.21 128.102 1731.85 101.736 1777.05 146.936V26.4237C1777.05 -4.56755 1839.55 -5.04736 1839.55 26.4237ZM1777.05 224.442C1782.55 167.206 1693.55 158.442 1693.55 224.442C1693.55 278.942 1772.05 276.442 1777.05 224.442Z" fill="#6A99BD"/>
<path fill-rule="evenodd" clip-rule="evenodd" d="M1248.5 75.9558V275.594C1248.5 304.422 1248.5 313.593 1283 313.593H1367.5C1526.5 313.593 1516 45.7422 1367.5 45.7344H1283C1268 45.7381 1248.5 52.9182 1248.5 75.9558ZM1350.5 104.383H1318.5V255.883H1350.5C1434 255.883 1430 104.305 1350.5 104.383Z" fill="#6A99BD"/>
<path d="M452.996 416.376C455.996 396.376 431.996 361.876 415.496 345.376C402.296 332.176 391.663 256.209 387.996 219.876C388 82.9138 604.496 77.9206 604.491 219.876M452.996 416.376C450.596 432.376 451.996 452.376 452.996 460.376C452.996 480.922 539.496 480.684 539.496 460.321C540.495 452.33 541.893 432.367 539.504 416.376M452.996 416.376C452.996 432.422 539.504 434.339 539.504 416.376M604.496 219.822C604.494 219.84 604.492 219.858 604.491 219.876M539.496 416.322C536.496 396.322 560.496 361.822 576.996 345.322C590.19 332.128 600.819 256.23 604.491 219.876M539.496 416.322C539.499 416.34 539.502 416.358 539.504 416.376M539.496 416.322L539.504 416.376M701 307.426C701 342.416 638 334.416 638 307.426V136.426C638 104.919 704 104.921 701 136.426V154.923C755.8 100.123 807.167 137.759 826 163.426C867 100.422 947.5 136.426 947.5 169.426M701 307.426C701 261.826 701 217.76 701 201.426M701 307.426V201.426M701 201.426C701 173.916 759.5 169.426 759.5 201.426M759.5 201.426C759.5 249.826 759.5 292.26 759.5 307.426M759.5 201.426V307.426M759.5 307.426C759.5 333.416 826 337.916 826 307.426M826 307.426C826 263.826 826 218.593 826 201.426M826 307.426V201.426M826 201.426C826 173.916 882 172.416 882 201.426M882 201.426C882 241.826 882 288.926 882 307.426M882 201.426V307.426M882 307.426C882 335.922 947.5 337.922 947.5 307.426M947.5 307.426C947.5 269.426 947.5 199.593 947.5 169.426M947.5 307.426V169.426M1589 307.448C1589 342.438 1526 334.438 1526 307.448V136.449C1526 104.942 1592 104.944 1589 136.449V201.449M1589 307.448C1589 261.848 1589 217.782 1589 201.449M1589 307.448V201.449M161 101.922C172 110.422 200.111 121.664 218.511 107.264C236.911 92.8645 229.382 71.4219 218.511 62.809C208.511 54.8859 194.511 44.0526 158.511 39.3888C104.52 32.3942 70.5121 47.9213 58.0116 60.4218C38.5109 74.9219 20.5 99.7645 38.5109 154.886C49.0116 174.386 57.2109 185.786 80.0109 193.386C108.511 202.886 144.5 211.922 147.011 228.386C149.218 242.856 151 257.922 112 261.422C80.5265 264.246 62 236.422 47.5109 229.886C32.5018 220.922 -3.31207 228.816 4.00045 264.386C7.50268 281.422 26.7219 295.633 32 299.922C37.2781 304.21 66.509 327.922 147.011 318.386C196.012 306.922 211.536 280.29 218.511 254.386C225.512 228.386 221.512 197.422 208.012 181.886C203.012 173.922 184.512 156.422 155.012 148.886C123.512 137.922 115.012 135.922 108.012 127.386C101.613 119.583 106.5 105.422 117 99.7645C120.714 97.7631 145.471 89.9219 161 101.922ZM335.015 73.9057V130.575H356.515C383.5 130.575 389.502 183.575 356.515 183.575H335.015V311.575C335.015 322.932 325.215 330.875 302.015 330.075C278.814 330.875 269.046 322.76 269.046 311.403V183.403H247.546C214.559 183.403 220.56 130.404 247.546 130.404H269.046V73.9057C269.046 44.9218 335.015 45.0995 335.015 73.9057ZM439.496 219.876C439.496 147.384 552.496 145.873 552.496 219.876C552.496 286.884 439.496 287.384 439.496 219.876ZM524.5 213.922C524.5 182.922 468.5 182.921 468.5 213.922C468.5 244.922 524.5 244.921 524.5 213.922ZM1521 59.9441C1521 10.922 1592 11.9095 1592 59.9441C1592 107.979 1521 107.422 1521 59.9441ZM2125 295.319C2125 246.297 2196 247.284 2196 295.319C2196 343.354 2125 342.797 2125 295.319ZM1197.51 130.393V304.393C1197.51 339.399 1135.01 336.399 1135.01 304.393V290.393C1116.34 312.726 1062.6 343.993 1009 290.393C955.403 236.793 988.001 168.308 1011.5 146.893C1032.17 128.059 1089.81 101.693 1135.01 146.893V130.393C1135.01 99.4012 1197.51 98.9214 1197.51 130.393ZM1135.01 224.399C1140.51 167.163 1051.51 158.399 1051.51 224.399C1051.51 278.899 1130.01 276.399 1135.01 224.399ZM2088.55 130.393V304.393C2088.55 339.399 2026.05 336.399 2026.05 304.393V290.393C2007.38 312.726 1953.64 343.993 1900.04 290.393C1846.44 236.793 1879.04 168.308 1902.54 146.893C1923.21 128.059 1980.85 101.693 2026.05 146.893V130.393C2026.05 99.4012 2088.55 98.9214 2088.55 130.393ZM2026.05 224.399C2031.55 167.163 1942.55 158.399 1942.55 224.399C1942.55 278.899 2021.05 276.399 2026.05 224.399ZM1839.55 26.4237C1839.55 -5.04736 1777.05 -4.56755 1777.05 26.4237V146.936C1731.85 101.736 1674.21 128.102 1653.54 146.936C1630.04 168.351 1597.44 236.835 1651.04 290.435C1704.64 344.035 1758.38 312.769 1777.05 290.435V304.435C1777.05 336.441 1839.55 339.441 1839.55 304.435V26.4237ZM1777.05 224.442C1782.55 167.206 1693.55 158.442 1693.55 224.442C1693.55 278.942 1772.05 276.442 1777.05 224.442ZM1248.5 75.9558V275.594C1248.5 304.422 1248.5 313.593 1283 313.593H1367.5C1526.5 313.593 1516 45.7422 1367.5 45.7344H1283C1268 45.7381 1248.5 52.9182 1248.5 75.9558ZM1318.5 104.383H1350.5C1430 104.305 1434 255.883 1350.5 255.883H1318.5V104.383Z" stroke="black" stroke-width="5"/>
</svg>
